<svg xmlns="http://www.w3.org/2000/svg" viewBox="0 0 64 64">
  <rect width="64" height="64" rx="15" fill="#0d1117"/>
  <path fill="#fff" d="M32 9.2a22.8 22.8 0 0 0-7.2 44.5c1.1.2 1.5-.5 1.5-1.1v-4c-6.7 1.5-8.1-2.8-8.1-2.8-1.1-2.8-2.8-3.6-2.8-3.6-2.3-1.6.2-1.5.2-1.5 2.5.2 3.9 2.6 3.9 2.6 2.3 3.9 6 2.8 7.4 2.1.2-1.6.9-2.8 1.6-3.4-5.4-.6-11.1-2.7-11.1-11.3 0-2.5.9-4.6 2.4-6.2-.2-.6-1-3.1.2-6.4 0 0 2-.6 6.4 2.4a21.8 21.8 0 0 1 11.5-1.6c3.9 0 7.8.5 11.5 1.6 4.4-3 6.4-2.4 6.4-2.4 1.3 3.3.5 5.8.2 6.4a8.9 8.9 0 0 1 2.4 6.2c0 8.7-5.7 10.7-11.1 11.3.9.8 1.7 2.2 1.7 4.4v6.5c0 .6.4 1.3 1.5 1.1A22.8 22.8 0 0 0 32 9.2Z"/>
</svg>
